<svg width="700" height="216" viewBox="0 0 700 216" fill="none" xmlns="http://www.w3.org/2000/svg">
<path d="M0 0H700V176C700 198.091 682.091 216 660 216H40C17.9086 216 0 198.091 0 176V0Z" fill="url(#paint0_linear_44_11)"/>
<rect x="29" y="23" width="150" height="150" rx="20" fill="url(#paint1_linear_44_11)"/>
<text fill="white" style="white-space: pre" xml:space="preserve" font-family="system-ui, -apple-system, 'Segoe UI', Roboto, Helvetica, Arial, sans-serif" font-size="32" font-weight="bold" letter-spacing="0em"><tspan x="194" y="67.1364">{title}</tspan></text>
<text fill="#A4A4A4" style="white-space: pre" xml:space="preserve" font-family="system-ui, -apple-system, 'Segoe UI', Roboto, Helvetica, Arial, sans-serif" font-size="25" font-weight="bold" letter-spacing="0em"><tspan x="194" y="99.0909">by {artist} | {album}</tspan></text>
<text fill="#c026d3" style="white-space: pre" xml:space="preserve" font-family="system-ui, -apple-system, 'Segoe UI', Roboto, Helvetica, Arial, sans-serif" font-size="20" font-weight="bold" letter-spacing="0em"><tspan x="194" y="126.273">{status}</tspan></text>
<path d="M95 138.5C90.05 138.5 85.8125 136.738 82.2875 133.213C78.7625 129.688 77 125.45 77 120.5C77 115.55 78.7625 111.313 82.2875 107.788C85.8125 104.263 90.05 102.5 95 102.5C96.725 102.5 98.3 102.725 99.725 103.175C101.225 103.55 102.65 104.15 104 104.975V57.5H131V75.5H113V120.5C113 125.45 111.238 129.688 107.713 133.213C104.188 136.738 99.95 138.5 95 138.5Z" fill="#FEF7FF"/>
<rect width="700" height="7" fill="url(#paint2_linear_44_11)"/>
<text fill="white" style="white-space: pre" xml:space="preserve" font-family="system-ui, -apple-system, 'Segoe UI', Roboto, Helvetica, Arial, sans-serif" font-size="12" font-weight="bold" letter-spacing="0em" text-anchor="middle">
    <tspan x="104" y="189.864">{user} &#x2022; LAST.FM</tspan>
</text>
<defs>
<linearGradient id="paint0_linear_44_11" x1="0" y1="0" x2="121.714" y2="394.443" gradientUnits="userSpaceOnUse">
<stop stop-color="#1E1E2F"/>
<stop offset="1" stop-color="#101010"/>
</linearGradient>
<linearGradient id="paint1_linear_44_11" x1="29" y1="23" x2="179" y2="173" gradientUnits="userSpaceOnUse">
<stop stop-color="#B14BFF"/>
<stop offset="1" stop-color="#FF6BCB"/>
</linearGradient>
<linearGradient id="paint2_linear_44_11" x1="0" y1="0" x2="0.139986" y2="13.9986" gradientUnits="userSpaceOnUse">
<stop stop-color="#B14BFF"/>
<stop offset="1" stop-color="#FF6BCB"/>
</linearGradient>
</defs>
</svg>
